<?xml version="1.0" encoding="UTF-8" standalone="no"?>
<!-- Created with Inkscape (http://www.inkscape.org/) -->

<svg
   xmlns:dc="http://purl.org/dc/elements/1.1/"
   xmlns:cc="http://creativecommons.org/ns#"
   xmlns:rdf="http://www.w3.org/1999/02/22-rdf-syntax-ns#"
   xmlns:svg="http://www.w3.org/2000/svg"
   xmlns="http://www.w3.org/2000/svg"
   xmlns:sodipodi="http://sodipodi.sourceforge.net/DTD/sodipodi-0.dtd"
   xmlns:inkscape="http://www.inkscape.org/namespaces/inkscape"
   width="68.07618mm"
   height="66.630386mm"
   viewBox="0 0 241.21481 236.09192"
   id="svg4813"
   version="1.1"
   inkscape:version="0.91 r13725"
   sodipodi:docname="logo3.svg">
  <defs
     id="defs4815" />
  <sodipodi:namedview
     id="base"
     pagecolor="#ffffff"
     bordercolor="#666666"
     borderopacity="1.0"
     inkscape:pageopacity="0.0"
     inkscape:pageshadow="2"
     inkscape:zoom="0.35"
     inkscape:cx="-201.53543"
     inkscape:cy="-33.38259"
     inkscape:document-units="px"
     inkscape:current-layer="layer1"
     showgrid="false"
     showborder="true"
     inkscape:window-width="1920"
     inkscape:window-height="1017"
     inkscape:window-x="-8"
     inkscape:window-y="-8"
     inkscape:window-maximized="1"
     fit-margin-top="0"
     fit-margin-left="0"
     fit-margin-right="0"
     fit-margin-bottom="0" />
  <metadata
     id="metadata4818">
    <rdf:RDF>
      <cc:Work
         rdf:about="">
        <dc:format>image/svg+xml</dc:format>
        <dc:type
           rdf:resource="http://purl.org/dc/dcmitype/StillImage" />
        <dc:title></dc:title>
      </cc:Work>
    </rdf:RDF>
  </metadata>
  <g
     inkscape:label="Calque 1"
     inkscape:groupmode="layer"
     id="layer1"
     transform="translate(-133.67829,-262.88769)">
    <g
       id="g5425"
       transform="translate(-97.14286,-125.71428)">
      <rect
         y="400.13644"
         x="244.0784"
         height="183.37041"
         width="214.70003"
         id="rect4585-5-5-9-1-9"
         style="opacity:0.98000004;fill:#241a17;fill-opacity:1;stroke:#ffffff;stroke-width:2.61263704;stroke-miterlimit:4;stroke-dasharray:none;stroke-opacity:1" />
      <rect
         ry="7.2323608"
         y="390.15268"
         x="232.37186"
         height="232.99051"
         width="238.11339"
         id="rect4585-3-5-7"
         style="opacity:0.98000004;fill:#000000;fill-opacity:0.98039216;stroke:#ffffff;stroke-width:3.10141182;stroke-miterlimit:4;stroke-dasharray:none;stroke-opacity:1" />
      <rect
         y="400.22726"
         x="244.16922"
         height="209.94839"
         width="214.51828"
         id="rect4585-5-4-2-2"
         style="opacity:0.98000004;fill:#1a1310;fill-opacity:1;stroke:#ffffff;stroke-width:2.79438877;stroke-miterlimit:4;stroke-dasharray:none;stroke-opacity:1" />
      <path
         inkscape:connector-curvature="0"
         id="path28395-5-9-66-8-5-7-8"
         d="m 357.09356,407.55895 c 38.5314,3.7936 70.8046,34.485 70.8046,74.3554 l 0.209,0 0,94.0077 -18.4043,0 0,0.1621 20.5254,0 0,-94.0077 -0.209,0 c 0,-40.5986 -33.4664,-71.6613 -72.9257,-74.5175 z m -7.9512,19.9882 c -30.64781,0.035 -56.08711,23.6876 -58.34771,54.2519 l -0.09,0 0,94.123 -18.0762,0 0,0.1621 20.1973,0 0,-94.123 0.09,0 c 2.2606,-30.5643 27.6999,-54.2193 58.34771,-54.2539 1.2545,2e-4 2.4965,0.055 3.7324,0.1328 -1.9267,-0.1919 -3.879,-0.2926 -5.8535,-0.2929 z"
         style="opacity:1;fill:#b7b7b7;fill-opacity:1;stroke:none;stroke-width:0.1;stroke-miterlimit:4;stroke-dasharray:none;stroke-opacity:1" />
      <g
         transform="translate(1912.7745,57.239549)"
         id="g5533-7-67-0-0"
         style="fill:#b7b7b7;fill-opacity:1">
        <path
           inkscape:connector-curvature="0"
           style="opacity:1;fill:#b7b7b7;fill-opacity:1;stroke:none;stroke-width:0.1;stroke-miterlimit:4;stroke-dasharray:none;stroke-opacity:1"
           d="m -1554.3516,377.00977 c 22.3785,3.64122 42.2893,21.52924 44.5489,44.89257 0.9854,22.55019 0.1718,45.5982 0.4375,68.3711 -0.9704,2.71159 -6.1626,1.20237 -9.8184,1.22851 l 0,0.42188 c 3.4537,-0.8689 10.4292,1.78301 11.5684,-1.40039 -0.2657,-22.7729 0.5479,-45.82091 -0.4375,-68.3711 -2.3184,-23.97074 -23.2172,-42.1733 -46.2989,-45.14257 z"
           id="path5531-5-9-9-3" />
        <path
           inkscape:connector-curvature="0"
           style="opacity:1;fill:#b7b7b7;fill-opacity:1;stroke:none;stroke-width:0.1;stroke-miterlimit:4;stroke-dasharray:none;stroke-opacity:1"
           d="m -1562.9648,387.76172 c -1.223,0.003 -2.4493,0.0661 -3.6758,0.18945 -19.7829,1.22266 -37.0454,18.0818 -38.7227,37.83399 -0.4335,21.12391 -0.059,43.05598 -0.1836,64.48828 -0.8567,2.74848 -6.0095,1.20169 -9.5957,1.2207 5e-4,0.14323 0,0.28646 0,0.42969 3.3409,-0.9069 10.3343,1.83801 11.3437,-1.40039 0.1251,-21.4323 -0.2499,-43.36437 0.1836,-64.48828 1.6773,-19.75219 18.9398,-36.61133 38.7227,-37.83399 2.8171,-0.28325 5.6321,-0.2332 8.4062,0.0996 -2.1363,-0.353 -4.3013,-0.54489 -6.4804,-0.53906 z"
           id="path28395-5-9-7-1-71-5-0-0-5-6" />
      </g>
      <path
         inkscape:connector-curvature="0"
         id="path28395-5-9-7-1-6-2-0-1-1-8-9"
         d="m 354.93176,451.44625 c 16.4394,1.7875 31.4782,14.6639 33.125,31.6914 0.6898,15.7852 0.1187,31.9204 0.3047,47.8614 -0.7291,2.0374 -4.8673,0.6648 -7.4199,0.8789 l 0,0.1601 c 2.4176,-0.6082 7.3003,1.2498 8.0977,-0.9785 -0.186,-15.941 0.3831,-32.0761 -0.3067,-47.8613 -1.6694,-17.2606 -17.0999,-30.249 -33.8008,-31.752 z m -4.0898,7.795 c -0.8561,0 -1.7137,0.044 -2.5723,0.1308 -13.8481,0.8559 -25.93141,12.6579 -27.10541,26.4844 -0.3034,14.7868 -0.041,30.14 -0.129,45.1426 -0.3513,1.1272 -1.7406,1.2163 -3.3339,1.1015 1.8622,0.1779 3.6095,0.243 4.0097,-1.041 0.088,-15.0026 -0.1725,-30.3558 0.1309,-45.1426 1.1741,-13.8265 13.25541,-25.6285 27.10351,-26.4843 1.5898,-0.1599 3.1799,-0.1661 4.7539,-0.043 -0.9472,-0.098 -1.9005,-0.151 -2.8574,-0.1485 z m -36.76371,72.6054 c -0.1063,0 -0.2053,0.015 -0.3066,0.023 l 0,0.168 c 0.5796,-0.1574 1.3163,-0.1557 2.1074,-0.1016 -0.6297,-0.059 -1.2496,-0.1092 -1.8008,-0.09 z"
         style="opacity:1;fill:#b7b7b7;fill-opacity:1;stroke:none;stroke-width:0.1;stroke-miterlimit:4;stroke-dasharray:none;stroke-opacity:1" />
      <text
         xml:space="preserve"
         style="font-style:normal;font-variant:normal;font-weight:normal;font-stretch:normal;font-size:23.8792305px;line-height:125%;font-family:Sans;-inkscape-font-specification:Lobster;letter-spacing:0px;word-spacing:0px;fill:#b7b7b7;fill-opacity:1;stroke:none;stroke-width:1px;stroke-linecap:butt;stroke-linejoin:miter;stroke-opacity:1"
         x="299.80594"
         y="585.7774"
         id="text5694-0-6-1-7"
         sodipodi:linespacing="125%"><tspan
           sodipodi:role="line"
           id="tspan5696-4-5-4-0"
           x="299.80594"
           y="585.7774"
           style="font-style:normal;font-variant:normal;font-weight:normal;font-stretch:condensed;font-family:Impact;-inkscape-font-specification:'Impact Condensed';fill:#b7b7b7;fill-opacity:1">Bureau 401</tspan></text>
      <text
         xml:space="preserve"
         style="font-style:normal;font-variant:normal;font-weight:normal;font-stretch:normal;font-size:15px;line-height:125%;font-family:Sans;-inkscape-font-specification:Lobster;letter-spacing:0px;word-spacing:0px;fill:#b7b7b7;fill-opacity:1;stroke:none;stroke-width:1px;stroke-linecap:butt;stroke-linejoin:miter;stroke-opacity:1"
         x="308.68045"
         y="601.78119"
         id="text5694-0-4-9-8-8"
         sodipodi:linespacing="125%"><tspan
           sodipodi:role="line"
           id="tspan5696-4-0-7-1-4"
           x="308.68045"
           y="601.78119"
           style="font-style:normal;font-variant:normal;font-weight:normal;font-stretch:condensed;font-size:15px;font-family:Impact;-inkscape-font-specification:'Impact Condensed';fill:#b7b7b7;fill-opacity:1">Escape games</tspan></text>
      <g
         style="fill:#787878;fill-opacity:0.98431373"
         transform="matrix(0.51413357,0,0,0.51413357,1230.9008,-84.490051)"
         id="g4680-9-4-6">
        <circle
           style="opacity:0.98000004;fill:#787878;fill-opacity:0.98431373;stroke:none;stroke-width:2.9000001;stroke-miterlimit:4;stroke-dasharray:none;stroke-opacity:1"
           id="path4586-3-7-47-9-4"
           cx="-1898.272"
           cy="963.03162"
           r="10.228103" />
        <circle
           style="opacity:0.98000004;fill:#787878;fill-opacity:0.98431373;stroke:none;stroke-width:2.9000001;stroke-miterlimit:4;stroke-dasharray:none;stroke-opacity:1"
           id="path4586-4-66-0-5"
           cx="-1897.6328"
           cy="963.4151"
           r="10.228103" />
        <circle
           style="opacity:0.98000004;fill:#787878;fill-opacity:0.98431373;stroke:none;stroke-width:2.9000001;stroke-miterlimit:4;stroke-dasharray:none;stroke-opacity:1"
           id="path4586-1-2-9-4-3"
           cx="-1897.8884"
           cy="963.22333"
           r="7.862854" />
      </g>
      <g
         style="fill:#787878;fill-opacity:0.98431373"
         transform="matrix(0.51413357,0,0,0.51413357,1423.6458,-85.386051)"
         id="g4680-4-8-1-0">
        <circle
           style="opacity:0.98000004;fill:#787878;fill-opacity:0.98431373;stroke:none;stroke-width:2.9000001;stroke-miterlimit:4;stroke-dasharray:none;stroke-opacity:1"
           id="path4586-3-7-2-70-8-7"
           cx="-1898.272"
           cy="963.03162"
           r="10.228103" />
        <circle
           style="opacity:0.98000004;fill:#787878;fill-opacity:0.98431373;stroke:none;stroke-width:2.9000001;stroke-miterlimit:4;stroke-dasharray:none;stroke-opacity:1"
           id="path4586-4-3-7-7-5"
           cx="-1897.6328"
           cy="963.4151"
           r="10.228103" />
        <circle
           style="opacity:0.98000004;fill:#787878;fill-opacity:0.98431373;stroke:none;stroke-width:2.9000001;stroke-miterlimit:4;stroke-dasharray:none;stroke-opacity:1"
           id="path4586-1-2-1-9-8-1"
           cx="-1897.8884"
           cy="963.22333"
           r="7.862854" />
      </g>
      <g
         style="fill:#787878;fill-opacity:0.98431373"
         transform="matrix(0.51413357,0,0,0.51413357,1230.846,104.34525)"
         id="g4680-4-5-7-5-3">
        <circle
           style="opacity:0.98000004;fill:#787878;fill-opacity:0.98431373;stroke:none;stroke-width:2.9000001;stroke-miterlimit:4;stroke-dasharray:none;stroke-opacity:1"
           id="path4586-3-7-2-7-1-6-5"
           cx="-1898.272"
           cy="963.03162"
           r="10.228103" />
        <circle
           style="opacity:0.98000004;fill:#787878;fill-opacity:0.98431373;stroke:none;stroke-width:2.9000001;stroke-miterlimit:4;stroke-dasharray:none;stroke-opacity:1"
           id="path4586-4-3-9-3-6-8"
           cx="-1897.6328"
           cy="963.4151"
           r="10.228103" />
        <circle
           style="opacity:0.98000004;fill:#787878;fill-opacity:0.98431373;stroke:none;stroke-width:2.9000001;stroke-miterlimit:4;stroke-dasharray:none;stroke-opacity:1"
           id="path4586-1-2-1-1-3-5-2"
           cx="-1897.8884"
           cy="963.22333"
           r="7.862854" />
      </g>
      <g
         style="fill:#787878;fill-opacity:0.98431373"
         transform="matrix(0.51413357,0,0,0.51413357,1422.623,105.36805)"
         id="g4680-4-5-2-6-1-2">
        <circle
           style="opacity:0.98000004;fill:#787878;fill-opacity:0.98431373;stroke:none;stroke-width:2.9000001;stroke-miterlimit:4;stroke-dasharray:none;stroke-opacity:1"
           id="path4586-3-7-2-7-0-5-2-5"
           cx="-1898.272"
           cy="963.03162"
           r="10.228103" />
        <circle
           style="opacity:0.98000004;fill:#787878;fill-opacity:0.98431373;stroke:none;stroke-width:2.9000001;stroke-miterlimit:4;stroke-dasharray:none;stroke-opacity:1"
           id="path4586-4-3-9-0-6-5-5"
           cx="-1897.6328"
           cy="963.4151"
           r="10.228103" />
        <circle
           style="opacity:0.98000004;fill:#787878;fill-opacity:0.98431373;stroke:none;stroke-width:2.9000001;stroke-miterlimit:4;stroke-dasharray:none;stroke-opacity:1"
           id="path4586-1-2-1-1-7-3-2-8"
           cx="-1897.8884"
           cy="963.22333"
           r="7.862854" />
      </g>
      <path
         inkscape:connector-curvature="0"
         id="path5619-2"
         d="m 328.37095,523.33885 c -0.025,-0.5365 -0.055,-7.6195 -0.067,-15.7403 -0.017,-11.7439 -3e-4,-14.9291 0.078,-15.5682 0.6558,-5.3034 2.45501,-9.6524 5.64911,-13.6556 0.3694,-0.4627 1.2064,-1.3777 1.8605,-2.0332 2.2466,-2.2518 4.2996,-3.709 7.207,-5.1153 2.4725,-1.1962 4.9545,-1.9312 7.9435,-2.3524 1.3574,-0.1914 5.2103,-0.1893 6.5791,0 6.1942,0.8726 11.4229,3.4252 15.6078,7.6194 3.7339,3.7418 6.0926,8.4299 6.8068,13.5274 0.283,2.0219 0.3064,3.4717 0.3065,19.0852 l 0,15.2047 -25.964,0 -25.96381,0 -0.046,-0.9754 z"
         style="opacity:1;fill:#b49100;fill-opacity:1;stroke:#283421;stroke-width:0.22185579;stroke-miterlimit:4;stroke-dasharray:none;stroke-opacity:1" />
      <path
         inkscape:connector-curvature="0"
         id="path5444-8"
         d="m 355.10056,525.12215 c -0.7288,-0.086 -2.5372,-0.4335 -2.6072,-0.4991 -0.014,-0.014 0.1945,-0.3374 0.4559,-0.7274 0.2612,-0.3903 0.4751,-0.7225 0.4751,-0.7386 0,-0.016 -0.3107,-0.036 -0.6905,-0.046 l -0.6907,-0.016 -0.4147,-3.1589 c -0.2282,-1.7376 -0.4312,-3.1754 -0.4512,-3.1955 -0.02,-0.02 -0.4855,-0.065 -1.0344,-0.1008 l -0.9982,-0.063 -0.036,-0.2987 c -0.02,-0.1645 -0.036,-0.7513 -0.036,-1.3043 0,-0.7816 -0.091,-1.9881 -0.4124,-5.4228 -0.2262,-2.4295 -0.4116,-4.5095 -0.4116,-4.622 0,-0.113 0.3177,-1.4021 0.7059,-2.8655 0.3883,-1.4638 0.6982,-2.6689 0.6888,-2.6784 -0.014,-0.013 -0.3338,0.7116 -0.7206,1.6021 l -0.7036,1.6194 -0.2058,-0.032 c -0.1129,-0.016 -0.464,-0.05 -0.7794,-0.071 l -0.5735,-0.04 0,-0.243 c 0,-0.1331 0.028,-0.6582 0.062,-1.1659 0.062,-0.9183 0.061,-0.9256 -0.097,-1.44 -0.087,-0.2845 -0.1573,-0.5435 -0.1558,-0.5758 0,-0.032 0.2821,-1.1573 0.6238,-2.4998 0.7177,-2.8196 0.9165,-3.765 1.1263,-5.3526 0.083,-0.6308 0.1703,-1.2081 0.1934,-1.2827 0.032,-0.1035 0.1858,-0.1967 0.6483,-0.3924 0.9579,-0.4055 1.4231,-0.829 1.4231,-1.2955 0,-0.087 -0.044,-0.34 -0.097,-0.5611 l -0.097,-0.4017 -0.6804,-0.1655 c -0.7629,-0.1855 -0.9409,-0.296 -1.0957,-0.6798 -0.2398,-0.5948 -0.089,-1.0377 0.5677,-1.6677 0.3142,-0.3015 0.4179,-0.3654 0.6499,-0.4002 l 0.276,-0.042 0.2214,-0.673 c 0.2656,-0.8065 0.163,-0.7595 1.5655,-0.7175 1.0087,0.03 1.2545,0.083 2.0592,0.44 l 0.3405,0.1514 -0.036,0.2704 c -0.02,0.1486 -0.05,0.3151 -0.063,0.3699 -0.023,0.083 0.032,0.1062 0.3246,0.1395 0.3142,0.036 0.3876,0.071 0.6811,0.3331 0.658,0.5864 0.6505,0.8271 -0.055,1.7843 -0.082,0.1103 -0.074,0.1658 0.083,0.631 0.3509,1.038 0.7764,1.6192 1.4213,1.9408 0.4369,0.2179 1.2807,0.4544 2.4649,0.6903 0.5337,0.1062 0.9911,0.2114 1.0164,0.2333 0.026,0.022 0.1394,0.3947 0.2535,0.8288 1.5745,5.9892 2.0663,7.7309 2.7387,9.7002 0.8876,2.5988 1.0062,3.0185 0.9727,3.4409 -0.05,0.6339 -0.6348,2.2225 -0.9356,2.5426 -0.2905,0.3094 -0.3998,0.093 -0.4509,-0.8957 l -0.036,-0.7058 -0.1965,0.3625 c -0.2337,0.4307 -0.4234,0.6259 -0.5577,0.5743 -0.1183,-0.046 -0.2155,-0.3763 -0.2159,-0.7365 0,-0.2633 -0.014,-0.2717 -0.2333,-0.3398 -0.1882,-0.056 -0.2429,-0.1062 -0.2845,-0.2592 -1.9874,-7.3186 -2.2777,-8.3474 -2.2933,-8.13 -0.013,0.129 0.1291,4.5014 0.3087,9.7157 0.1792,5.2142 0.3258,9.6762 0.3258,9.9157 l 0,0.4353 -1.0975,0.067 c -0.6036,0.038 -1.1108,0.082 -1.1268,0.097 -0.029,0.03 0.1475,5.1694 0.1935,5.5941 l 0.026,0.2405 -0.5509,0.3175 c -0.6525,0.3759 -0.6191,0.2865 -0.62,1.657 0,0.9234 0,0.9265 -0.1331,0.9196 -0.074,-0.013 -0.5293,-0.054 -1.0146,-0.1129 z"
         style="fill:#1b1411;fill-opacity:1" />
    </g>
  </g>
</svg>
